<svg width="116" height="20" fill="none" xmlns="http://www.w3.org/2000/svg"><g clip-path="url(#a)"><mask id="b" style="mask-type:luminance" maskUnits="userSpaceOnUse" x="0" y="0" width="116" height="20"><path d="M116 0H0v20h116V0Z" fill="#fff"/></mask><g mask="url(#b)"><path d="M116 0H0v20h116V0Z" fill="#fff"/><path d="M11.352 9.51c0 2.4-1.324 3.946-3.355 3.946-2.032 0-3.334-1.547-3.334-3.946V1.066H.783V9.44c0 4.868 2.784 7.659 7.214 7.659 4.429 0 7.236-2.792 7.236-7.659V1.066h-3.88V9.51ZM37.98 1.066h-3.855V16.9h3.855V1.066ZM21.267 8.832v-.36c0-2.4 1.302-3.945 3.334-3.945H24.756c1.476 0 2.848.824 3.21 2.181h3.928C31.265 2.991 28.664.9 24.832.9H24.675c-4.429 0-7.214 2.792-7.214 7.66v.847c0 4.868 2.785 7.66 7.214 7.66H24.832c3.833 0 6.432-2.092 7.063-5.809h-3.928c-.362 1.357-1.734 2.182-3.21 2.182H24.601c-2.032 0-3.334-1.546-3.334-3.945v-.663Z" fill="#E4002B"/></g></g><defs><clipPath id="a"><path fill="#fff" d="M0 0h116v20H0z"/></clipPath></defs></svg>
